# xmcd CD database file
# Copyright (C) 1996 Ti Kan
#
# Track frame offsets:
#	182
#	13785
#	26477
#	42152
#	56545
#	71775
#	85540
#	99705
#	113142
#	126565
#	141237
#	157092
#	171247
#	184270
#	197082
#	209822
#	223285
#	235910
#	247375
#	262117
#	274627
#	287502
# Disc length: 4000 seconds
#
# Revision: 1
# Processed by: cddbd v1.4PL0 Copyright (c) Steve Scherf et al.
# Submitted via: CDCOPY 4.900
#
DISCID=620f9e16
DTITLE=Sonny Boy Williamson - Sonny Boy Williamson
DYEAR=1900
DGENRE=
TTITLE0=Whiskey Headed Blues
TTITLE1=You've Been Foolin' Round Downtown
TTITLE2=Christmas Morning Blues
TTITLE3=Goodbye Red
TTITLE4=Insurance Man Blues
TTITLE5=Good Morning, Little School Girl
TTITLE6=Blue Bird Blues
TTITLE7=I'm Tired Trucking My Blues Away
TTITLE8=Sugar Mama
TTITLE9=Suzie Q
TTITLE10=Decoration Blues
TTITLE11=Down South
TTITLE12=Tell Me, Baby
TTITLE13=Early In the Morning
TTITLE14=I Been Dealing With the Devil
TTITLE15=War Time Blues
TTITLE16=I'm Gonna Catch You Soon
TTITLE17=Black Panther Blues
TTITLE18=Sleepy Drunk Blues
TTITLE19=My Black Name Blues
TTITLE20=Broken Heart Blues
TTITLE21=I Have Got To Go
EXTD=
EXTT0=
EXTT1=
EXTT2=
EXTT3=
EXTT4=
EXTT5=
EXTT6=
EXTT7=
EXTT8=
EXTT9=
EXTT10=
EXTT11=
EXTT12=
EXTT13=
EXTT14=
EXTT15=
EXTT16=
EXTT17=
EXTT18=
EXTT19=
EXTT20=
EXTT21=
PLAYORDER=
